<svg xmlns="http://www.w3.org/2000/svg" height="20" width="20"><path d="m15.354 17.208-2.229-2.229q-.271.167-.656.344-.386.177-.677.26v-.625q.187-.083.458-.208.271-.125.438-.208l-2.959-2.959v2.229L7 11.104H4.562V8.938h2.5L3 4.854l.458-.437 12.354 12.354Zm-.687-3.625-.417-.416q.5-.646.792-1.459.291-.812.291-1.687 0-1.667-.989-3-.99-1.333-2.552-1.938v-.645q1.854.562 3 2.114 1.146 1.552 1.146 3.469 0 .979-.334 1.875-.333.896-.937 1.687Zm-1.938-1.937-.937-.938V7.5q.666.396 1.031 1.073.365.677.365 1.448 0 .437-.105.844-.104.406-.354.781Zm-3-3L8.521 7.417l1.208-1.188Zm-.604 3.729v-1.396L7.292 9.146l-.375.396h-1.75v.958H7.25Zm-.917-2.313Z"/></svg>