<svg xmlns="http://www.w3.org/2000/svg" version="1.1" xmlnsXlink="http://www.w3.org/1999/xlink" xmlnsSvgjs="http://svgjs.dev/svgjs" width="1000" height="1125" viewBox="0 0 1000 1125"><g transform="matrix(1,0,0,1,0,0)"><svg viewBox="0 0 320 360" data-background-color="#046380" preserveAspectRatio="xMidYMid meet" height="1125" width="1000" xmlns="http://www.w3.org/2000/svg" xmlnsXlink="http://www.w3.org/1999/xlink"><defs></defs><g id="tight-bounds" transform="matrix(1,0,0,1,0,0)"><svg viewBox="0 0 320 360" height="360" width="320"><g><svg></svg></g><g><svg viewBox="0 0 320 360" height="360" width="320"><g><path d="M219.58 41.008c0.707 0 6.365 2.829 9.547 3.89-1.061 0.354-3.536-0.707-6.365-1.768 0.707 0 2.122 0.354 3.536 1.06-0.707-0.707-6.011-2.475-6.718-3.182M166.895 30.047c1.061-0.354 13.436 1.414 19.094 1.768 0.354-0.354-0.707-0.354-2.122-0.707 1.768-0.354 5.304 0.707 7.779 1.06-7.425 0.354-15.558-1.768-22.629-1.06-2.475 0-0.707-0.707-2.122-1.061M156.641 30.047c6.365 0 11.315 0 2.121 0.707-1.061-0.354-2.475-0.354-2.121-0.707M256.707 59.395c0.707 0 3.536 3.182 4.95 4.243-0.354 0.354-3.182-2.475-4.596-3.536 0.354 0.354 0 0-0.354-0.707M249.635 54.798c-2.829-2.475-3.889-2.475-4.243-3.889 2.475 1.414 4.243 2.829 4.243 3.889M204.022 32.522c0.354-0.354 1.061 0.354 2.829 0.707-2.122-0.354-1.768 0-1.061 0.707-2.475-0.354-3.182-0.707-2.475-1.414 1.414 0.707 1.768 0.354 0.707 0M103.602 36.765c0-0.354 1.414-1.061 2.475-1.414-1.061 0.707-0.707 1.061 1.061 0.353 0 0.354-2.122 1.061-3.536 1.768 0.707-0.354 1.414-1.414 0-0.707M211.094 28.986c-1.061 0.354-4.95-1.768-8.84-2.475-2.122-0.707 8.486 1.768 8.84 2.475M2.475 203.66c2.122 8.84 0.707 8.486 0 0M2.829 150.621c0.354-1.414 0.707-5.304 1.06-4.95-1.061 8.486-2.829 12.376-3.182 18.74 1.061-5.657-0.354 3.182-0.707 5.304 0.354 2.829 0.354-1.768 1.061-1.06 0.707 1.061-1.414 15.912-0.707 7.779-0.707 7.425 0 15.558 1.414 17.679-1.768 11.315 7.072 36.773 8.84 42.077 0.354 0.354 0-1.768 0.707-0.353 0.707 4.597 3.889 7.779 4.95 12.729 1.061 1.414 5.304 9.193 6.011 10.962 1.414 2.829 2.122 2.475 3.536 5.303 4.243 8.133 10.961 15.912 17.326 23.337 20.508 24.044 51.978 43.845 86.984 50.918 35.006 7.425 71.779 2.122 100.419-11.669 1.768-1.061 1.414-1.414 3.536-2.122 9.901-3.182 21.923-13.436 28.641-17.326 3.182-3.536 11.669-9.547 12.73-13.082 6.011-4.95 12.022-13.083 15.204-18.387 1.768-2.829 3.182-2.829 3.889-4.597-0.354 0 5.657-7.425 7.426-11.668-0.707 0-1.768 2.122-1.768 0 12.729-24.398 19.801-57.282 15.911-79.912 0.707 27.934-6.365 59.05-19.801 78.851-6.011 12.729-18.387 26.519-29.701 36.42-1.768 1.768-3.536 3.889-5.658 5.304-6.718 5.657-14.144 10.254-21.922 14.497-18.387 10.254-38.895 19.094-62.94 19.447 41.37-3.536 78.497-24.398 99.006-49.856-15.558 15.204-22.276 21.215-39.602 30.055-1.414 2.475-13.083 7.425-20.862 9.547 4.597-2.122 14.144-5.657 17.326-8.486-25.812 12.376-54.453 19.448-81.326 15.558 10.254 0 24.751 0.354 38.541-2.121 2.122-0.707 3.182-1.414 5.658-1.768 26.873-6.011 52.685-19.094 71.072-37.481-10.608 9.547-26.519 20.862-36.774 24.398 9.547-5.304 26.873-15.558 32.53-23.337-11.315 11.315-32.53 22.63-45.966 27.58-2.122 0.354 1.414-1.414-2.122 0-4.243 1.061-2.475 1.061-3.536 1.768-16.265 4.597-35.006 8.486-50.563 7.072-2.829-0.354-3.889-1.061-6.365-1.061-2.829-0.354-5.304-0.354-8.486-0.354-12.376-1.414-25.812-6.365-35.713-10.607-5.304-2.475-10.608-4.243-15.912-7.426-4.243-2.475-7.779-5.304-11.314-8.132-13.436-9.901-24.751-19.801-35.36-33.945-19.094-26.519-28.994-59.757-27.58-92.641 1.414-32.884 14.497-65.061 35.359-88.752-1.061 1.061 1.414-2.475 3.536-4.596 0 0.707-0.354 1.768 2.122-0.707 2.122-2.475-0.707-0.707 0.353-2.122 21.923-24.044 60.111-43.492 99.36-44.199 1.414-1.061 3.889-2.475 6.718-1.768 0 0.354-1.768 0.354-1.768 0.354 3.889-0.354 7.425-0.354 9.193 0.353 0.354-0.354-1.414-0.707 0-0.707 2.475 0.707 3.182 0 4.597 0.707-1.061 0-2.122 0-2.829 0.354 8.84 0 14.497 2.122 23.337 2.829-4.597-1.061-5.657-1.061-9.193-2.122 3.889 0.707 5.657 1.414 7.425 1.061-0.707 0-0.354-1.061 0.354-0.707 7.072 1.768 7.779 2.475 15.204 4.95 0.707-0.707-3.182-1.061-4.243-2.122 7.072 2.475 13.436 4.243 17.68 7.072-1.414-1.061-5.657-2.475-8.84-3.889-0.354 0.354 1.061 0.707 1.414 1.414-3.536-1.768-8.486-3.536-13.436-4.243 4.243 1.061 7.072 2.475 8.84 3.182-3.889-0.707-8.84-3.182-14.498-4.243 9.193 2.829 26.519 9.193 37.127 14.851-3.889-2.475-8.486-4.243-10.961-5.657 2.122 0.354 4.597 1.768 4.597 1.06 2.475 1.061 5.657 3.536 7.425 3.89-3.182-2.122-9.547-5.304-11.668-6.365 26.519 12.022 50.21 32.177 65.414 57.989 1.414 2.475 3.536 8.133 5.304 8.84-0.354-1.768-1.768-2.829-3.182-5.657 0.707 0 0.707-1.061 0-2.122-1.414-1.768 0 1.414-1.415-0.354-6.365-11.669-14.144-21.923-26.165-33.237 6.718 6.365 1.768 1.768 0.353-0.354 9.193 8.133 19.801 21.923 24.398 28.995-0.707-1.061-1.061-1.768-0.707-1.768 8.486 14.497 13.79 27.58 19.094 46.32 0.354 0.354 0-1.414 0.707-0.353 3.536 14.851 4.597 27.227 4.243 38.541 2.829-19.094-3.536-48.796-14.851-72.133-1.414-2.829-1.414-0.707-2.829-3.889 0-1.061-1.061-3.182-1.768-4.597-14.144-23.337-31.47-39.956-51.978-53.038 1.414 0.707 4.243 2.829 4.244 2.475-38.188-25.105-82.387-28.641-118.807-20.862-2.475 1.061-3.536 2.122-6.365 3.536 5.304-1.768 8.486-2.122 13.437-3.183 1.061-1.061-4.597 0.354-2.122-0.707 0.354 0.354 4.95-0.707 6.011-0.353 0 0.354-1.414 0.707-1.768 1.06 11.669-2.475 23.691-2.829 33.945-2.121-6.011 0.354-16.972-0.707-20.508 1.061 3.536-0.354 8.486-0.707 11.668-0.354-4.243 0-12.022 0.354-15.558 0.707-0.354-0.354 5.657-1.061 1.768-1.06-1.768 0.354-4.597 0.354-5.657 1.414-30.409 2.829-60.111 18.74-80.973 37.481-4.243 3.536-9.193 7.425-12.375 11.314-7.779 8.84-12.729 17.68-18.387 25.459 3.536-7.425 11.315-18.74 20.508-28.287 9.193-9.547 19.094-17.68 24.398-21.923 0 1.414 8.486-5.304 11.669-7.425-2.122 1.768 1.414-0.707 2.121-0.354 11.315-6.718 20.508-9.193 30.763-13.083-2.475 0.707-4.597 1.414-4.951 1.061 2.475-0.707 3.889-1.414 3.536-1.768-9.901 2.829-25.459 9.547-37.834 16.972 22.276-15.204 50.564-24.398 78.497-24.751 27.934-0.707 55.16 6.365 76.729 17.68 14.497 6.365 28.287 18.033 39.249 29.348 3.182 2.829 0.707-0.707 5.304 4.243-1.414-0.707-2.475-1.414-0.707 0.707 2.829 3.182-0.707-2.475 3.889 3.182-0.354 0-1.768-1.768-1.768-1.061 12.376 10.961 21.923 30.762 27.58 43.846-1.414-5.304-4.95-12.729-7.779-18.033 8.486 15.558 11.315 24.751 14.851 38.541 1.414 1.061-0.707-4.95 0.707-2.121 0.354 2.122 0.707 8.84 2.122 9.9-1.061-6.718-2.829-14.851-4.243-16.265 1.061 0.707-1.768-8.133-3.536-10.254-0.707-5.657-5.657-15.558-9.901-22.984-15.204-29.702-42.431-54.099-72.839-67.536 0-0.707-1.768-1.414-2.476-2.121-30.055-12.729-66.122-16.265-100.773-8.133-35.006 8.486-67.889 28.641-91.227 57.636 1.061-3.536 9.901-10.254 10.255-13.083-10.254 10.961-21.215 25.459-28.641 41.016-7.779 15.558-12.022 31.47-13.79 43.138" fill="#ffffff" data-fill-palette-color="tertiary"></path></g><g transform="matrix(1,0,0,1,71.34155251624354,90)"><svg viewBox="0 0 177.31689496751292 180" height="180" width="177.31689496751292"><g><svg viewBox="0 0 177.31689496751292 180" height="180" width="177.31689496751292"><g><svg viewBox="0 0 224 227.3894995024993" height="180" width="177.31689496751292"><g transform="matrix(1,0,0,1,0,169.23248685915908)"><svg viewBox="0 0 224 58.157012643340195" height="58.157012643340195" width="224"><g><svg viewBox="0 0 224 58.157012643340195" height="58.157012643340195" width="224"><g><svg viewBox="0 0 224 58.157012643340195" height="58.157012643340195" width="224"><g transform="matrix(1,0,0,1,0,0)"><svg width="224" viewBox="2.5 -43.650001525878906 170.0399932861328 44.150001525878906" height="58.157012643340195" data-palette-color="#ffffff"><path d="M21.9-19.15Q25.3-19.15 27.28-21 29.25-22.85 29.25-26.1L29.25-26.1Q29.25-30.7 26.93-33.63 24.6-36.55 20.15-36.55L20.15-36.55Q16.75-36.55 13.95-34.6L13.95-34.6 13.95-4.1 21.7-1.95 20.7 0.05 3 0.05 3-1.5 7.7-5.2 7.7-35.6 2.5-37.3 3.5-39.3 9.3-39.3Q14.15-39.3 18.85-39.6L18.85-39.6Q22.35-39.8 24-39.8L24-39.8Q27.5-39.8 30.23-38.33 32.95-36.85 34.45-34.25 35.95-31.65 35.95-28.5L35.95-28.5Q35.95-25 33.4-21.9 30.85-18.8 26.9-17.05 22.95-15.3 19.15-15.5L19.15-15.5 16.8-17.2 17.8-19.2 21.85-19.2 21.9-19.15ZM70.15-2L69.15 0 59.65 0 59.65-5.2 53.3 0.1Q52.25 0.5 50.55 0.5L50.55 0.5Q47.15 0.5 45.15-1.58 43.15-3.65 43.15-7.2L43.15-7.2 43.15-19.15 38.7-21.75 38.7-23.3 47.25-27.5 49.15-27.5 49.15-9.7Q49.15-6.95 50-5.85 50.85-4.75 53.05-4.75L53.05-4.75Q54.6-4.75 56.1-5.33 57.6-5.9 59.65-7.6L59.65-7.6 59.65-19.15 55.2-21.75 55.2-23.3 63.75-27.5 65.65-27.5 65.65-3.75 70.15-2ZM94.15-27.05Q96.85-27.05 99.02-25.33 101.2-23.6 102.42-20.65 103.65-17.7 103.65-14.15L103.65-14.15Q103.65-10.3 101.3-6.93 98.95-3.55 95.42-1.53 91.9 0.5 88.6 0.5L88.6 0.5Q86.55 0.5 84.77-0.4 83-1.3 81.65-2.95L81.65-2.95 79.5 0 77.6 0 77.6-35.8 73.15-38.9 73.15-40.45 81.7-43.65 83.6-43.65 83.6-21.35 90.3-26.65Q91.9-27.05 94.15-27.05L94.15-27.05ZM91.5-3.7Q97.15-3.7 97.15-11.75L97.15-11.75Q97.15-16.4 95.7-19.6 94.25-22.8 91.6-22.8L91.6-22.8Q89.7-22.8 87.9-22.05 86.1-21.3 83.6-19.1L83.6-19.1 83.6-10.15Q83.6-7.4 85.65-5.55 87.7-3.7 91.5-3.7L91.5-3.7ZM123.84-2L122.84 0 108.89 0 108.89-1.55 113.34-5.05 113.34-35.8 108.89-38.9 108.89-40.45 117.44-43.65 119.34-43.65 119.34-3.75 123.84-2ZM143.29-2L142.29 0 128.34 0 128.34-1.55 132.79-5.05 132.79-19.65 128.34-22.75 128.34-24.3 136.89-27.5 138.79-27.5 138.79-3.75 143.29-2ZM135.59-42.5Q137.09-42.5 138.07-41.4 139.04-40.3 139.04-38.65L139.04-38.65Q139.04-37.5 138.34-36.48 137.64-35.45 136.59-34.85 135.54-34.25 134.54-34.25L134.54-34.25Q133.04-34.25 132.07-35.35 131.09-36.45 131.09-38.1L131.09-38.1Q131.09-39.25 131.79-40.28 132.49-41.3 133.54-41.9 134.59-42.5 135.59-42.5L135.59-42.5ZM162.59-27.05Q164.64-27.05 167.36-26.48 170.09-25.9 171.29-25.2L171.29-25.2 171.29-17.5 169.39-17.5Q167.44-20 164.91-21.43 162.39-22.85 159.69-22.85L159.69-22.85Q157.39-22.85 156.21-20.8 155.04-18.75 155.04-14.8L155.04-14.8Q155.04-10.1 157.09-6.93 159.14-3.75 162.94-3.75L162.94-3.75Q165.79-3.75 171.04-7.85L171.04-7.85 172.54-5.95 164.84 0.1Q162.84 0.5 160.04 0.5L160.04 0.5Q156.74 0.5 154.11-1.23 151.49-2.95 150.01-5.9 148.54-8.85 148.54-12.4L148.54-12.4Q148.54-16.25 150.71-19.65 152.89-23.05 156.19-25.05 159.49-27.05 162.59-27.05L162.59-27.05Z" opacity="1" transform="matrix(1,0,0,1,0,0)" fill="#ffffff" class="undefined-text-0" data-fill-palette-color="primary" id="text-0"></path></svg></g></svg></g></svg></g></svg></g><g transform="matrix(1,0,0,1,38.168560121870755,0)"><svg viewBox="0 0 147.6628797562585 160.7459829461923" height="160.7459829461923" width="147.6628797562585"><g><svg xmlns="http://www.w3.org/2000/svg" xmlns:xlink="http://www.w3.org/1999/xlink" version="1.1" x="0" y="0" viewBox="4.069000244140625 0 91.86100769042969 100" enable-background="new 0 0 100 100" xml:space="preserve" height="160.7459829461923" width="147.6628797562585" class="icon-icon-0" data-fill-palette-color="accent" id="icon-0"><path d="M86.286 63.73c-2.386 4.642-5.946 8.683-9.04 8.683-2.988 0-6.581-4.056-9.002-8.709-5.772 3.182-9.688 9.324-9.688 16.38 0 10.321 10.696 13.002 18.689 13.002 8.295 0 18.685-2.681 18.685-13.002C95.931 73.047 92.036 66.915 86.286 63.73z" fill="#ffffff" data-fill-palette-color="accent"></path><path d="M58.067 20.851c0 11.511-11.595 31.861-20.849 31.861-8.917 0-20.853-20.35-20.853-31.861C16.366 9.335 25.704 0 37.219 0 48.732 0 58.067 9.335 58.067 20.851z" fill="#ffffff" data-fill-palette-color="accent"></path><path d="M90.329 45.13c0 7.226-7.275 19.994-13.083 19.994-5.597 0-13.088-12.768-13.088-19.994 0-7.229 5.858-13.087 13.088-13.087C84.47 32.043 90.329 37.901 90.329 45.13z" fill="#ffffff" data-fill-palette-color="accent"></path><path d="M50.452 81.76c0-10.118 5.613-18.923 13.888-23.483 0 0-4.838-6.888-11.083-10.347-4.23 8.234-10.547 15.401-16.038 15.401-5.302 0-11.671-7.192-15.964-15.445C11.013 53.523 4.069 64.42 4.069 76.939 4.069 95.247 23.043 100 37.219 100c6.97 0 14.772-1.071 21.055-4.138C53.686 92.997 50.452 88.537 50.452 81.76z" fill="#ffffff" data-fill-palette-color="accent"></path></svg></g></svg></g><g></g></svg></g></svg></g></svg></g></svg></g></svg><rect width="320" height="360" fill="none" stroke="none" visibility="hidden"></rect></g></svg></g></svg>